<svg width="28" height="18" viewBox="0 0 28 18" fill="none" xmlns="http://www.w3.org/2000/svg">
<path d="M11.2578 8.15625C12.7109 7.40625 13.5078 6.32812 13.5078 4.6875C13.5078 1.35938 11.0234 0.5625 8.21094 0.5625H0.382812V17.1562H8.39844C11.4453 17.1562 14.2578 15.7031 14.2578 12.3281C14.2578 10.2656 13.2734 8.71875 11.2578 8.15625ZM3.99219 3.375H7.46094C8.77344 3.375 9.94531 3.75 9.94531 5.29688C9.94531 6.70312 9.00781 7.26562 7.69531 7.26562H3.99219V3.375ZM7.92969 14.3438H3.99219V9.75H7.97656C9.61719 9.75 10.6016 10.4531 10.6016 12.1406C10.6016 13.8281 9.38281 14.3438 7.92969 14.3438ZM24.7109 3.04688V1.40625H18.0078V3.04688H24.7109ZM27.3828 11.3438C27.3828 7.78125 25.2734 4.78125 21.5234 4.78125C17.8203 4.78125 15.3359 7.54688 15.3359 11.1562C15.3359 14.9062 17.7266 17.4844 21.5234 17.4844C24.3828 17.4844 26.2578 16.1719 27.1484 13.4531H24.2422C23.9141 14.4844 22.6016 15 21.6172 15C19.6953 15 18.6641 13.875 18.6641 11.9531H27.3359C27.3359 11.7656 27.3828 11.5312 27.3828 11.3438ZM18.6641 9.84375C18.7578 8.29688 19.8359 7.3125 21.3828 7.3125C23.0703 7.3125 23.9141 8.25 24.0547 9.84375H18.6641Z" fill="#B2B2B2"/>
</svg>
